%TF.GenerationSoftware,KiCad,Pcbnew,(6.0.2)*%
%TF.CreationDate,2022-08-16T14:57:48-05:00*%
%TF.ProjectId,REF1300,52454631-3330-4302-9e6b-696361645f70,rev?*%
%TF.SameCoordinates,Original*%
%TF.FileFunction,Copper,L1,Top*%
%TF.FilePolarity,Positive*%
%FSLAX46Y46*%
G04 Gerber Fmt 4.6, Leading zero omitted, Abs format (unit mm)*
G04 Created by KiCad (PCBNEW (6.0.2)) date 2022-08-16 14:57:48*
%MOMM*%
%LPD*%
G01*
G04 APERTURE LIST*
%TA.AperFunction,NonConductor*%
%ADD10C,0.000000*%
%TD*%
%ADD11C,0.300000*%
%TA.AperFunction,NonConductor*%
%ADD12C,0.300000*%
%TD*%
%TA.AperFunction,SMDPad,CuDef*%
%ADD13R,1.600000X1.670000*%
%TD*%
%TA.AperFunction,SMDPad,CuDef*%
%ADD14R,0.750000X2.000000*%
%TD*%
%TA.AperFunction,ComponentPad*%
%ADD15C,4.000000*%
%TD*%
%TA.AperFunction,SMDPad,CuDef*%
%ADD16R,3.480000X1.846667*%
%TD*%
%TA.AperFunction,ViaPad*%
%ADD17C,0.800000*%
%TD*%
%TA.AperFunction,Conductor*%
%ADD18C,0.600000*%
%TD*%
%TA.AperFunction,Conductor*%
%ADD19C,0.250000*%
%TD*%
G04 APERTURE END LIST*
D10*
G36*
X152494700Y-91381400D02*
G01*
X150894700Y-91381400D01*
X150894700Y-89711400D01*
X152494700Y-89711400D01*
X152494700Y-91381400D01*
G37*
G36*
X152494700Y-88285700D02*
G01*
X150894700Y-88285700D01*
X150894700Y-86615700D01*
X152494700Y-86615700D01*
X152494700Y-88285700D01*
G37*
D11*
D12*
X137408666Y-84356047D02*
X137408666Y-82656047D01*
X137742000Y-82656047D01*
X137942000Y-82737000D01*
X138075333Y-82898904D01*
X138142000Y-83060809D01*
X138208666Y-83384619D01*
X138208666Y-83627476D01*
X138142000Y-83951285D01*
X138075333Y-84113190D01*
X137942000Y-84275095D01*
X137742000Y-84356047D01*
X137408666Y-84356047D01*
X138742000Y-83870333D02*
X139408666Y-83870333D01*
X138608666Y-84356047D02*
X139075333Y-82656047D01*
X139542000Y-84356047D01*
X139808666Y-82656047D02*
X140608666Y-82656047D01*
X140208666Y-84356047D02*
X140208666Y-82656047D01*
X141075333Y-83465571D02*
X141542000Y-83465571D01*
X141742000Y-84356047D02*
X141075333Y-84356047D01*
X141075333Y-82656047D01*
X141742000Y-82656047D01*
X143008666Y-84356047D02*
X142342000Y-84356047D01*
X142342000Y-82656047D01*
X145342000Y-84356047D02*
X144875333Y-83546523D01*
X144542000Y-84356047D02*
X144542000Y-82656047D01*
X145075333Y-82656047D01*
X145208666Y-82737000D01*
X145275333Y-82817952D01*
X145342000Y-82979857D01*
X145342000Y-83222714D01*
X145275333Y-83384619D01*
X145208666Y-83465571D01*
X145075333Y-83546523D01*
X144542000Y-83546523D01*
X145942000Y-83465571D02*
X146408666Y-83465571D01*
X146608666Y-84356047D02*
X145942000Y-84356047D01*
X145942000Y-82656047D01*
X146608666Y-82656047D01*
X147675333Y-83465571D02*
X147208666Y-83465571D01*
X147208666Y-84356047D02*
X147208666Y-82656047D01*
X147875333Y-82656047D01*
X149142000Y-84356047D02*
X148342000Y-84356047D01*
X148742000Y-84356047D02*
X148742000Y-82656047D01*
X148608666Y-82898904D01*
X148475333Y-83060809D01*
X148342000Y-83141761D01*
X149608666Y-82656047D02*
X150475333Y-82656047D01*
X150008666Y-83303666D01*
X150208666Y-83303666D01*
X150342000Y-83384619D01*
X150408666Y-83465571D01*
X150475333Y-83627476D01*
X150475333Y-84032238D01*
X150408666Y-84194142D01*
X150342000Y-84275095D01*
X150208666Y-84356047D01*
X149808666Y-84356047D01*
X149675333Y-84275095D01*
X149608666Y-84194142D01*
X151342000Y-82656047D02*
X151475333Y-82656047D01*
X151608666Y-82737000D01*
X151675333Y-82817952D01*
X151742000Y-82979857D01*
X151808666Y-83303666D01*
X151808666Y-83708428D01*
X151742000Y-84032238D01*
X151675333Y-84194142D01*
X151608666Y-84275095D01*
X151475333Y-84356047D01*
X151342000Y-84356047D01*
X151208666Y-84275095D01*
X151142000Y-84194142D01*
X151075333Y-84032238D01*
X151008666Y-83708428D01*
X151008666Y-83303666D01*
X151075333Y-82979857D01*
X151142000Y-82817952D01*
X151208666Y-82737000D01*
X151342000Y-82656047D01*
X152675333Y-82656047D02*
X152808666Y-82656047D01*
X152942000Y-82737000D01*
X153008666Y-82817952D01*
X153075333Y-82979857D01*
X153142000Y-83303666D01*
X153142000Y-83708428D01*
X153075333Y-84032238D01*
X153008666Y-84194142D01*
X152942000Y-84275095D01*
X152808666Y-84356047D01*
X152675333Y-84356047D01*
X152542000Y-84275095D01*
X152475333Y-84194142D01*
X152408666Y-84032238D01*
X152342000Y-83708428D01*
X152342000Y-83303666D01*
X152408666Y-82979857D01*
X152475333Y-82817952D01*
X152542000Y-82737000D01*
X152675333Y-82656047D01*
D13*
%TO.P,R3 220 Ohm,1*%
%TO.N,/Male_ACK*%
X152365000Y-108465500D03*
%TO.P,R3 220 Ohm,2*%
%TO.N,/Female_ACK*%
X152365000Y-111566500D03*
%TD*%
%TO.P,R4 220 Ohm,1*%
%TO.N,/Error*%
X151693000Y-87446000D03*
%TO.P,R4 220 Ohm,2*%
%TO.N,/GP2*%
X151693000Y-90547000D03*
%TD*%
D14*
%TO.P,U1,1,VDD*%
%TO.N,/VCC*%
X144668000Y-105027000D03*
%TO.P,U1,2,GP5*%
%TO.N,/Male_ACK*%
X145975000Y-105025000D03*
%TO.P,U1,3,GP4*%
%TO.N,/Male_BUSY*%
X147245000Y-105028000D03*
%TO.P,U1,4,GP3*%
%TO.N,/GP3*%
X148517000Y-105026000D03*
%TO.P,U1,5,GP2*%
%TO.N,/GP2*%
X148516000Y-97924000D03*
%TO.P,U1,6,GP1*%
%TO.N,/D1*%
X147249000Y-97922000D03*
%TO.P,U1,7,GP0*%
%TO.N,/D0*%
X145973000Y-97922000D03*
%TO.P,U1,8,VSS*%
%TO.N,/GND*%
X144665000Y-97923000D03*
%TD*%
D15*
%TO.P,Hole2,1*%
%TO.N,N/C*%
X163620000Y-84536000D03*
%TD*%
%TO.P,Hole1,1*%
%TO.N,N/C*%
X128492000Y-84641000D03*
%TD*%
%TO.P,Hole4,1*%
%TO.N,N/C*%
X163646000Y-114607000D03*
%TD*%
D16*
%TO.P,J2,1,1*%
%TO.N,/Strobe*%
X168877000Y-83143000D03*
%TO.P,J2,2,2*%
%TO.N,/D0*%
X168877000Y-85913000D03*
%TO.P,J2,3,3*%
%TO.N,/D1*%
X168877000Y-88683000D03*
%TO.P,J2,4,4*%
%TO.N,/D2*%
X168877000Y-91453000D03*
%TO.P,J2,5,5*%
%TO.N,/D3*%
X168877000Y-94223000D03*
%TO.P,J2,6,6*%
%TO.N,/D4*%
X168877000Y-96993000D03*
%TO.P,J2,7,7*%
%TO.N,/D5*%
X168877000Y-99763000D03*
%TO.P,J2,8,8*%
%TO.N,/D6*%
X168877000Y-102533000D03*
%TO.P,J2,9,9*%
%TO.N,/D7*%
X168877000Y-105303000D03*
%TO.P,J2,10,10*%
%TO.N,/Female_ACK*%
X168877000Y-108073000D03*
%TO.P,J2,11,11*%
%TO.N,/Female_BUSY*%
X168877000Y-110843000D03*
%TO.P,J2,12,12*%
%TO.N,/Paper_Out*%
X168877000Y-113613000D03*
%TO.P,J2,13,13*%
%TO.N,/Select*%
X168877000Y-116383000D03*
%TD*%
D13*
%TO.P,C1 100 nF,1*%
%TO.N,/VCC*%
X139580000Y-108466500D03*
%TO.P,C1 100 nF,2*%
%TO.N,/GND*%
X139580000Y-111567500D03*
%TD*%
%TO.P,D4,1,K*%
%TO.N,/D6*%
X131534000Y-104652000D03*
%TO.P,D4,2,A*%
%TO.N,/VCC*%
X134902000Y-104692000D03*
%TD*%
D15*
%TO.P,Hole3,1*%
%TO.N,N/C*%
X128474000Y-114701000D03*
%TD*%
D13*
%TO.P,D5,1,K*%
%TO.N,/D7*%
X131534000Y-107850000D03*
%TO.P,D5,2,A*%
%TO.N,/VCC*%
X134902000Y-107890000D03*
%TD*%
D16*
%TO.P,J1,13,13*%
%TO.N,/Select*%
X123059000Y-116493000D03*
%TO.P,J1,12,12*%
%TO.N,/Paper_Out*%
X123059000Y-113723000D03*
%TO.P,J1,11,11*%
%TO.N,/Male_BUSY*%
X123059000Y-110953000D03*
%TO.P,J1,10,10*%
%TO.N,/Male_ACK*%
X123059000Y-108183000D03*
%TO.P,J1,9,9*%
%TO.N,/D7*%
X123059000Y-105413000D03*
%TO.P,J1,8,8*%
%TO.N,/D6*%
X123059000Y-102643000D03*
%TO.P,J1,7,7*%
%TO.N,/D5*%
X123059000Y-99873000D03*
%TO.P,J1,6,6*%
%TO.N,/D4*%
X123059000Y-97103000D03*
%TO.P,J1,5,5*%
%TO.N,/D3*%
X123059000Y-94333000D03*
%TO.P,J1,4,4*%
%TO.N,/D2*%
X123059000Y-91563000D03*
%TO.P,J1,3,3*%
%TO.N,/D1*%
X123059000Y-88793000D03*
%TO.P,J1,2,2*%
%TO.N,/D0*%
X123059000Y-86023000D03*
%TO.P,J1,1,1*%
%TO.N,/Strobe*%
X123059000Y-83253000D03*
%TD*%
D13*
%TO.P,D3,1,K*%
%TO.N,/D5*%
X131531000Y-101520000D03*
%TO.P,D3,2,A*%
%TO.N,/VCC*%
X134899000Y-101560000D03*
%TD*%
%TO.P,D1,1,K*%
%TO.N,/GP3*%
X134921000Y-95251000D03*
%TO.P,D1,2,A*%
%TO.N,/D3*%
X131553000Y-95211000D03*
%TD*%
%TO.P,D2,1,K*%
%TO.N,/D4*%
X131536000Y-98352000D03*
%TO.P,D2,2,A*%
%TO.N,/VCC*%
X134904000Y-98392000D03*
%TD*%
%TO.P,R1 220 Ohm,1*%
%TO.N,/Male_BUSY*%
X142764000Y-108481500D03*
%TO.P,R1 220 Ohm,2*%
%TO.N,/Female_BUSY*%
X142764000Y-111582500D03*
%TD*%
%TO.P,R2 10k Ohm,1*%
%TO.N,/GP3*%
X149153000Y-108426500D03*
%TO.P,R2 10k Ohm,2*%
%TO.N,/VCC*%
X149153000Y-111527500D03*
%TD*%
D17*
%TO.N,/Male_BUSY*%
X138751800Y-113005100D03*
X146732600Y-106628400D03*
%TO.N,/GND*%
X138134600Y-111619000D03*
X143581500Y-98273600D03*
%TO.N,/Error*%
X154007200Y-87469100D03*
%TD*%
D18*
%TO.N,/VCC*%
X147852900Y-111527500D02*
X144668000Y-108342600D01*
X134902000Y-107890000D02*
X134902000Y-104692000D01*
X139255000Y-108466500D02*
X141194400Y-106527100D01*
X149153000Y-111527500D02*
X147852900Y-111527500D01*
X144668000Y-108342600D02*
X144668000Y-106527100D01*
X139580000Y-108466500D02*
X139255000Y-108466500D01*
X138353500Y-107890000D02*
X138930000Y-108466500D01*
X134899000Y-103353900D02*
X134902000Y-103356900D01*
X144668000Y-105027000D02*
X144668000Y-106527100D01*
X134904000Y-99727100D02*
X134899000Y-99732100D01*
X134902000Y-107890000D02*
X138353500Y-107890000D01*
X134902000Y-104692000D02*
X134902000Y-103356900D01*
X134899000Y-99732100D02*
X134899000Y-101560000D01*
X141194400Y-106527100D02*
X144668000Y-106527100D01*
X134904000Y-98392000D02*
X134904000Y-99727100D01*
X139255000Y-108466500D02*
X138930000Y-108466500D01*
X134899000Y-101560000D02*
X134899000Y-103353900D01*
D19*
%TO.N,/Male_ACK*%
X145975000Y-107347400D02*
X145975000Y-105025000D01*
X150278200Y-109427200D02*
X151239900Y-108465500D01*
X150278200Y-109591100D02*
X148218700Y-109591100D01*
X143705700Y-107321300D02*
X143889200Y-107504800D01*
X143889200Y-107504800D02*
X143889200Y-108450600D01*
X152365000Y-108465500D02*
X151239900Y-108465500D01*
X123059000Y-108183000D02*
X125124100Y-108183000D01*
X150278200Y-112578000D02*
X150278200Y-109591100D01*
X148166700Y-112728100D02*
X150128100Y-112728100D01*
X150128100Y-112728100D02*
X150278200Y-112578000D01*
X126569900Y-109628800D02*
X140574300Y-109628800D01*
X150278200Y-109591100D02*
X150278200Y-109427200D01*
X143889200Y-108450600D02*
X148166700Y-112728100D01*
X140705200Y-109497900D02*
X140705200Y-108412100D01*
X140574300Y-109628800D02*
X140705200Y-109497900D01*
X140705200Y-108412100D02*
X141796000Y-107321300D01*
X148218700Y-109591100D02*
X145975000Y-107347400D01*
X141796000Y-107321300D02*
X143705700Y-107321300D01*
X125124100Y-108183000D02*
X126569900Y-109628800D01*
%TO.N,/Male_BUSY*%
X125124100Y-110953000D02*
X136560200Y-110953000D01*
X136560200Y-111113600D02*
X138451700Y-113005100D01*
X147245000Y-105028000D02*
X147245000Y-106353100D01*
X147007900Y-106353100D02*
X146732600Y-106628400D01*
X138451700Y-113005100D02*
X138751800Y-113005100D01*
X147245000Y-106353100D02*
X147007900Y-106353100D01*
X136560200Y-110953000D02*
X136560200Y-111113600D01*
X142764000Y-108481500D02*
X141638900Y-108481500D01*
X140688100Y-110154800D02*
X137358400Y-110154800D01*
X137358400Y-110154800D02*
X136560200Y-110953000D01*
X141638900Y-109204000D02*
X140688100Y-110154800D01*
X123059000Y-110953000D02*
X125124100Y-110953000D01*
X141638900Y-108481500D02*
X141638900Y-109204000D01*
%TO.N,/GP3*%
X148517000Y-106630400D02*
X148517000Y-105026000D01*
X149153000Y-108426500D02*
X149153000Y-107266400D01*
X143316800Y-102521700D02*
X147337800Y-102521700D01*
X134921000Y-95251000D02*
X136046100Y-95251000D01*
X147337800Y-102521700D02*
X148517000Y-103700900D01*
X136046100Y-95251000D02*
X143316800Y-102521700D01*
X149153000Y-107266400D02*
X148517000Y-106630400D01*
X148517000Y-105026000D02*
X148517000Y-103700900D01*
%TO.N,/GP2*%
X150567900Y-90547000D02*
X150567900Y-94547000D01*
X151693000Y-90547000D02*
X150567900Y-90547000D01*
X150567900Y-94547000D02*
X148516000Y-96598900D01*
X148516000Y-97924000D02*
X148516000Y-96598900D01*
%TO.N,/D1*%
X143161600Y-88793000D02*
X123059000Y-88793000D01*
X151446400Y-88683000D02*
X166811900Y-88683000D01*
X147249000Y-97922000D02*
X147249000Y-92880400D01*
X168877000Y-88683000D02*
X166811900Y-88683000D01*
X147249000Y-92880400D02*
X151446400Y-88683000D01*
X147249000Y-92880400D02*
X143161600Y-88793000D01*
%TO.N,/D0*%
X170942100Y-85913000D02*
X170942100Y-89785300D01*
X145975000Y-99249100D02*
X145973000Y-99247100D01*
X145973000Y-97922000D02*
X145973000Y-96596900D01*
X168877000Y-85913000D02*
X170942100Y-85913000D01*
X120993900Y-86023000D02*
X120993900Y-89895300D01*
X120993900Y-89895300D02*
X121140100Y-90041500D01*
X145973000Y-97922000D02*
X145973000Y-99247100D01*
X158344600Y-89931500D02*
X149027000Y-99249100D01*
X121140100Y-90041500D02*
X139417600Y-90041500D01*
X170942100Y-89785300D02*
X170795900Y-89931500D01*
X123059000Y-86023000D02*
X120993900Y-86023000D01*
X149027000Y-99249100D02*
X145975000Y-99249100D01*
X170795900Y-89931500D02*
X158344600Y-89931500D01*
X139417600Y-90041500D02*
X145973000Y-96596900D01*
D18*
%TO.N,/GND*%
X138228400Y-111619000D02*
X138279900Y-111567500D01*
X138134600Y-111619000D02*
X138228400Y-111619000D01*
X139580000Y-111567500D02*
X138279900Y-111567500D01*
X144665000Y-97923000D02*
X144314400Y-98273600D01*
X144314400Y-98273600D02*
X143581500Y-98273600D01*
D19*
%TO.N,/D3*%
X131553000Y-94504700D02*
X133331300Y-92726400D01*
X143747300Y-100171400D02*
X160863500Y-100171400D01*
X168877000Y-94223000D02*
X166811900Y-94223000D01*
X133331300Y-92726400D02*
X136461500Y-92726400D01*
X136461500Y-92726400D02*
X139598900Y-95863800D01*
X131553000Y-94630900D02*
X131553000Y-94504700D01*
X139598900Y-95863800D02*
X139598900Y-96023000D01*
X125422000Y-94630900D02*
X125124100Y-94333000D01*
X160863500Y-100171400D02*
X166811900Y-94223000D01*
X131553000Y-95211000D02*
X131553000Y-94630900D01*
X139598900Y-96023000D02*
X143747300Y-100171400D01*
X131553000Y-94630900D02*
X125422000Y-94630900D01*
X123059000Y-94333000D02*
X125124100Y-94333000D01*
%TO.N,/D4*%
X132098600Y-98352000D02*
X131536000Y-98352000D01*
X168877000Y-96993000D02*
X166811900Y-96993000D01*
X136282500Y-93183900D02*
X139148800Y-96050200D01*
X126373100Y-98352000D02*
X125124100Y-97103000D01*
X123059000Y-97103000D02*
X125124100Y-97103000D01*
X132813000Y-98200100D02*
X132813000Y-93969100D01*
X132661100Y-98352000D02*
X132813000Y-98200100D01*
X132813000Y-93969100D02*
X133598200Y-93183900D01*
X133598200Y-93183900D02*
X136282500Y-93183900D01*
X132098600Y-98352000D02*
X132661100Y-98352000D01*
X139148800Y-96050200D02*
X139148800Y-96209400D01*
X163134700Y-100670200D02*
X166811900Y-96993000D01*
X139148800Y-96209400D02*
X143609600Y-100670200D01*
X131536000Y-98352000D02*
X126373100Y-98352000D01*
X143609600Y-100670200D02*
X163134700Y-100670200D01*
%TO.N,/D5*%
X168877000Y-99763000D02*
X166811900Y-99763000D01*
X136096200Y-93634100D02*
X138698700Y-96236600D01*
X132656100Y-101520000D02*
X133323600Y-100852500D01*
X133323600Y-94095200D02*
X133784700Y-93634100D01*
X165454300Y-101120600D02*
X166811900Y-99763000D01*
X138698700Y-96236600D02*
X138698700Y-96418200D01*
X123059000Y-99873000D02*
X128758900Y-99873000D01*
X131531000Y-101520000D02*
X132656100Y-101520000D01*
X133784700Y-93634100D02*
X136096200Y-93634100D01*
X128758900Y-99873000D02*
X130405900Y-101520000D01*
X138698700Y-96418200D02*
X143401100Y-101120600D01*
X133323600Y-100852500D02*
X133323600Y-94095200D01*
X131531000Y-101520000D02*
X130405900Y-101520000D01*
X143401100Y-101120600D02*
X165454300Y-101120600D01*
%TO.N,/D6*%
X128399900Y-102643000D02*
X130408900Y-104652000D01*
X143586900Y-101950800D02*
X166229700Y-101950800D01*
X138248600Y-96612500D02*
X143586900Y-101950800D01*
X131534000Y-104652000D02*
X132659100Y-104652000D01*
X168877000Y-102533000D02*
X166811900Y-102533000D01*
X133773800Y-94281700D02*
X133971300Y-94084200D01*
X132659100Y-104652000D02*
X133773800Y-103537300D01*
X138248600Y-96433500D02*
X138248600Y-96612500D01*
X123059000Y-102643000D02*
X128399900Y-102643000D01*
X131534000Y-104652000D02*
X130408900Y-104652000D01*
X133773800Y-103537300D02*
X133773800Y-94281700D01*
X166229700Y-101950800D02*
X166811900Y-102533000D01*
X133971300Y-94084200D02*
X135899300Y-94084200D01*
X135899300Y-94084200D02*
X138248600Y-96433500D01*
%TO.N,/D7*%
X141638800Y-110594000D02*
X141853000Y-110379800D01*
X138476800Y-113781300D02*
X139572800Y-113781300D01*
X151924900Y-109878400D02*
X154066300Y-109878400D01*
X154066300Y-109878400D02*
X158641700Y-105303000D01*
X150843000Y-110960300D02*
X151924900Y-109878400D01*
X131534000Y-107850000D02*
X130408900Y-107850000D01*
X150314600Y-113178300D02*
X150843000Y-112649900D01*
X141638800Y-111715300D02*
X141638800Y-110594000D01*
X147081300Y-113178300D02*
X150314600Y-113178300D01*
X158641700Y-105303000D02*
X168877000Y-105303000D01*
X150843000Y-112649900D02*
X150843000Y-110960300D01*
X123059000Y-105413000D02*
X120993900Y-105413000D01*
X136559200Y-111863700D02*
X138476800Y-113781300D01*
X123059000Y-105413000D02*
X127971900Y-105413000D01*
X120993900Y-105413000D02*
X120993900Y-112053700D01*
X127971900Y-105413000D02*
X130408900Y-107850000D01*
X144282800Y-110379800D02*
X147081300Y-113178300D01*
X121141700Y-112201500D02*
X125725800Y-112201500D01*
X120993900Y-112053700D02*
X121141700Y-112201500D01*
X141853000Y-110379800D02*
X144282800Y-110379800D01*
X125725800Y-112201500D02*
X126063600Y-111863700D01*
X139572800Y-113781300D02*
X141638800Y-111715300D01*
X126063600Y-111863700D02*
X136559200Y-111863700D01*
%TO.N,/Female_BUSY*%
X143889100Y-111582500D02*
X145935000Y-113628400D01*
X142764000Y-111582500D02*
X143889100Y-111582500D01*
X154376000Y-113628400D02*
X157161400Y-110843000D01*
X157161400Y-110843000D02*
X168877000Y-110843000D01*
X145935000Y-113628400D02*
X154376000Y-113628400D01*
%TO.N,/Female_ACK*%
X153490100Y-111566500D02*
X156983600Y-108073000D01*
X156983600Y-108073000D02*
X168877000Y-108073000D01*
X152365000Y-111566500D02*
X153490100Y-111566500D01*
%TO.N,/Error*%
X151693000Y-87446000D02*
X152818100Y-87446000D01*
X152818100Y-87446000D02*
X153984100Y-87446000D01*
X153984100Y-87446000D02*
X154007200Y-87469100D01*
%TO.N,/Select*%
X123059000Y-116493000D02*
X125124100Y-116493000D01*
X166811900Y-116383000D02*
X166150100Y-117044800D01*
X125675900Y-117044800D02*
X125124100Y-116493000D01*
X166150100Y-117044800D02*
X125675900Y-117044800D01*
X168877000Y-116383000D02*
X166811900Y-116383000D01*
%TO.N,/Paper_Out*%
X165480700Y-112281800D02*
X166811900Y-113613000D01*
X123059000Y-113723000D02*
X125124100Y-113723000D01*
X136170500Y-112336800D02*
X138088300Y-114254600D01*
X157784500Y-114254600D02*
X159757300Y-112281800D01*
X138088300Y-114254600D02*
X157784500Y-114254600D01*
X168877000Y-113613000D02*
X166811900Y-113613000D01*
X159757300Y-112281800D02*
X165480700Y-112281800D01*
X125124100Y-113723000D02*
X126510300Y-112336800D01*
X126510300Y-112336800D02*
X136170500Y-112336800D01*
%TO.N,/D2*%
X166811900Y-91453000D02*
X158557300Y-99707600D01*
X168877000Y-91453000D02*
X166811900Y-91453000D01*
X143920100Y-99707600D02*
X140208300Y-95995800D01*
X136001700Y-91563000D02*
X123059000Y-91563000D01*
X158557300Y-99707600D02*
X143920100Y-99707600D01*
X140208300Y-95769600D02*
X136001700Y-91563000D01*
X140208300Y-95995800D02*
X140208300Y-95769600D01*
%TO.N,/Strobe*%
X165839000Y-82170100D02*
X126207000Y-82170100D01*
X123059000Y-83253000D02*
X125124100Y-83253000D01*
X126207000Y-82170100D02*
X125124100Y-83253000D01*
X168877000Y-83143000D02*
X166811900Y-83143000D01*
X166811900Y-83143000D02*
X165839000Y-82170100D01*
%TD*%
M02*
