%TF.GenerationSoftware,KiCad,Pcbnew,(6.0.2)*%
%TF.CreationDate,2022-08-16T14:57:48-05:00*%
%TF.ProjectId,REF1300,52454631-3330-4302-9e6b-696361645f70,rev?*%
%TF.SameCoordinates,Original*%
%TF.FileFunction,Copper,L2,Bot*%
%TF.FilePolarity,Positive*%
%FSLAX46Y46*%
G04 Gerber Fmt 4.6, Leading zero omitted, Abs format (unit mm)*
G04 Created by KiCad (PCBNEW (6.0.2)) date 2022-08-16 14:57:48*
%MOMM*%
%LPD*%
G01*
G04 APERTURE LIST*
%TA.AperFunction,ComponentPad*%
%ADD10C,4.000000*%
%TD*%
%TA.AperFunction,SMDPad,CuDef*%
%ADD11R,3.480000X1.846667*%
%TD*%
%TA.AperFunction,ViaPad*%
%ADD12C,0.800000*%
%TD*%
%TA.AperFunction,Conductor*%
%ADD13C,0.250000*%
%TD*%
%TA.AperFunction,Conductor*%
%ADD14C,0.600000*%
%TD*%
G04 APERTURE END LIST*
D10*
%TO.P,Hole2,1*%
%TO.N,N/C*%
X163620000Y-84536000D03*
%TD*%
%TO.P,Hole1,1*%
%TO.N,N/C*%
X128492000Y-84641000D03*
%TD*%
%TO.P,Hole4,1*%
%TO.N,N/C*%
X163646000Y-114607000D03*
%TD*%
D11*
%TO.P,J2,14,P14*%
%TO.N,/Line_Feed*%
X168877000Y-84528000D03*
%TO.P,J2,15,P15*%
%TO.N,/Error*%
X168877000Y-87298000D03*
%TO.P,J2,16,P16*%
%TO.N,/Reset*%
X168877000Y-90068000D03*
%TO.P,J2,17,P17*%
%TO.N,/Select_Printer*%
X168877000Y-92838000D03*
%TO.P,J2,18,P18*%
%TO.N,/GND*%
X168877000Y-95608000D03*
%TO.P,J2,19,P19*%
X168877000Y-98378000D03*
%TO.P,J2,20,P20*%
X168877000Y-101148000D03*
%TO.P,J2,21,P21*%
X168877000Y-103918000D03*
%TO.P,J2,22,P22*%
X168877000Y-106688000D03*
%TO.P,J2,23,P23*%
X168877000Y-109458000D03*
%TO.P,J2,24,P24*%
X168877000Y-112228000D03*
%TO.P,J2,25,P25*%
X168877000Y-114998000D03*
%TD*%
D10*
%TO.P,Hole3,1*%
%TO.N,N/C*%
X128474000Y-114701000D03*
%TD*%
D11*
%TO.P,J1,25,P25*%
%TO.N,/GND*%
X123059000Y-115108000D03*
%TO.P,J1,24,P24*%
X123059000Y-112338000D03*
%TO.P,J1,23,P23*%
X123059000Y-109568000D03*
%TO.P,J1,22,P22*%
X123059000Y-106798000D03*
%TO.P,J1,21,P21*%
X123059000Y-104028000D03*
%TO.P,J1,20,P20*%
X123059000Y-101258000D03*
%TO.P,J1,19,P19*%
X123059000Y-98488000D03*
%TO.P,J1,18,P18*%
X123059000Y-95718000D03*
%TO.P,J1,17,P17*%
%TO.N,/Select_Printer*%
X123059000Y-92948000D03*
%TO.P,J1,16,P16*%
%TO.N,/Reset*%
X123059000Y-90178000D03*
%TO.P,J1,15,P15*%
%TO.N,/Error*%
X123059000Y-87408000D03*
%TO.P,J1,14,P14*%
%TO.N,/Line_Feed*%
X123059000Y-84638000D03*
%TD*%
D12*
%TO.N,/Male_BUSY*%
X138751800Y-113005100D03*
X146732600Y-106628400D03*
%TO.N,/GND*%
X138134600Y-111619000D03*
X143581500Y-98273600D03*
%TO.N,/Error*%
X154007200Y-87469100D03*
%TD*%
D13*
%TO.N,/Male_BUSY*%
X146732600Y-106628400D02*
X145128500Y-106628400D01*
X145128500Y-106628400D02*
X138751800Y-113005100D01*
D14*
%TO.N,/GND*%
X138134600Y-111619000D02*
X127338200Y-111619000D01*
X166636900Y-97257900D02*
X166636900Y-95608000D01*
X168877000Y-112228000D02*
X167757000Y-112228000D01*
X166636900Y-114998000D02*
X166636900Y-112228000D01*
X123059000Y-106798000D02*
X124179100Y-106798000D01*
X124179100Y-98488000D02*
X125299100Y-98488000D01*
X125299100Y-95718000D02*
X125299100Y-98488000D01*
X167757000Y-101148000D02*
X167757000Y-98378000D01*
X167757000Y-109458000D02*
X167757000Y-106688000D01*
X124179100Y-109568000D02*
X123979000Y-109768100D01*
X123059000Y-104028000D02*
X123619100Y-104028000D01*
X166636900Y-105078000D02*
X166636900Y-103918000D01*
X168877000Y-95608000D02*
X166636900Y-95608000D01*
X123979000Y-112338000D02*
X125299100Y-113658100D01*
X168877000Y-109458000D02*
X167757000Y-109458000D01*
X123979000Y-109768100D02*
X123979000Y-112338000D01*
X138134600Y-111619000D02*
X147164300Y-102589300D01*
X123059000Y-109568000D02*
X124179100Y-109568000D01*
X124179100Y-104028000D02*
X124179100Y-106798000D01*
X168877000Y-101148000D02*
X167757000Y-101148000D01*
X123059000Y-98488000D02*
X124179100Y-98488000D01*
X168246900Y-106688000D02*
X166636900Y-105078000D01*
X123059000Y-112338000D02*
X123979000Y-112338000D01*
X148493000Y-103918000D02*
X147164300Y-102589300D01*
X167757000Y-103918000D02*
X167757000Y-101148000D01*
X123059000Y-115108000D02*
X125299100Y-115108000D01*
X168317000Y-106688000D02*
X167757000Y-106688000D01*
X168317000Y-106688000D02*
X168246900Y-106688000D01*
X123689000Y-104028000D02*
X125299100Y-102417900D01*
X124179100Y-101258000D02*
X125299100Y-101258000D01*
X123059000Y-95718000D02*
X125299100Y-95718000D01*
X124179100Y-98488000D02*
X124179100Y-101258000D01*
X166636900Y-103918000D02*
X148493000Y-103918000D01*
X167757000Y-112228000D02*
X166636900Y-112228000D01*
X168877000Y-98378000D02*
X167757000Y-98378000D01*
X125299100Y-113658100D02*
X125299100Y-115108000D01*
X167757000Y-98378000D02*
X166636900Y-97257900D01*
X123619100Y-104028000D02*
X124179100Y-104028000D01*
X168877000Y-114998000D02*
X166636900Y-114998000D01*
X127338200Y-111619000D02*
X125299100Y-113658100D01*
X123619100Y-104028000D02*
X123689000Y-104028000D01*
X167757000Y-103918000D02*
X166636900Y-103918000D01*
X168877000Y-106688000D02*
X168317000Y-106688000D01*
X147164300Y-102589300D02*
X143581500Y-99006500D01*
X123059000Y-101258000D02*
X124179100Y-101258000D01*
X124179100Y-106798000D02*
X124179100Y-109568000D01*
X167757000Y-112228000D02*
X167757000Y-109458000D01*
X143581500Y-99006500D02*
X143581500Y-98273600D01*
X125299100Y-102417900D02*
X125299100Y-101258000D01*
X168877000Y-103918000D02*
X167757000Y-103918000D01*
D13*
%TO.N,/Error*%
X123059000Y-87408000D02*
X125124100Y-87408000D01*
X154007200Y-87469100D02*
X166640800Y-87469100D01*
X125124100Y-87408000D02*
X125185200Y-87469100D01*
X166640800Y-87469100D02*
X166811900Y-87298000D01*
X125185200Y-87469100D02*
X154007200Y-87469100D01*
X168877000Y-87298000D02*
X166811900Y-87298000D01*
%TO.N,/Select_Printer*%
X166811900Y-92838000D02*
X166490300Y-92516400D01*
X125555700Y-92516400D02*
X125124100Y-92948000D01*
X168877000Y-92838000D02*
X166811900Y-92838000D01*
X123059000Y-92948000D02*
X125124100Y-92948000D01*
X166490300Y-92516400D02*
X125555700Y-92516400D01*
%TO.N,/Reset*%
X123059000Y-90178000D02*
X125124100Y-90178000D01*
X168877000Y-90068000D02*
X125234100Y-90068000D01*
X125234100Y-90068000D02*
X125124100Y-90178000D01*
%TO.N,/Line_Feed*%
X164627600Y-82187700D02*
X127574400Y-82187700D01*
X127574400Y-82187700D02*
X125124100Y-84638000D01*
X168877000Y-84528000D02*
X166811900Y-84528000D01*
X166811900Y-84528000D02*
X166811900Y-84372000D01*
X166811900Y-84372000D02*
X164627600Y-82187700D01*
X123059000Y-84638000D02*
X125124100Y-84638000D01*
%TD*%
M02*
