%TF.GenerationSoftware,KiCad,Pcbnew,(6.0.2)*%
%TF.CreationDate,2022-08-16T14:57:48-05:00*%
%TF.ProjectId,REF1300,52454631-3330-4302-9e6b-696361645f70,rev?*%
%TF.SameCoordinates,Original*%
%TF.FileFunction,Legend,Top*%
%TF.FilePolarity,Positive*%
%FSLAX46Y46*%
G04 Gerber Fmt 4.6, Leading zero omitted, Abs format (unit mm)*
G04 Created by KiCad (PCBNEW (6.0.2)) date 2022-08-16 14:57:48*
%MOMM*%
%LPD*%
G01*
G04 APERTURE LIST*
%ADD10C,0.150000*%
%ADD11C,0.125000*%
%ADD12C,0.100000*%
%ADD13C,0.120000*%
G04 APERTURE END LIST*
D10*
X144870714Y-101689380D02*
X144299285Y-101689380D01*
X144585000Y-101689380D02*
X144585000Y-100689380D01*
X144489761Y-100832238D01*
X144394523Y-100927476D01*
X144299285Y-100975095D01*
X144585000Y-103632714D02*
X144585000Y-102204142D01*
%TO.C,*%
D11*
%TO.C,R3 220 Ohm*%
X152074809Y-113970000D02*
X152312904Y-113803333D01*
X152074809Y-113684285D02*
X152574809Y-113684285D01*
X152574809Y-113874761D01*
X152551000Y-113922380D01*
X152527190Y-113946190D01*
X152479571Y-113970000D01*
X152408142Y-113970000D01*
X152360523Y-113946190D01*
X152336714Y-113922380D01*
X152312904Y-113874761D01*
X152312904Y-113684285D01*
X152574809Y-114136666D02*
X152574809Y-114446190D01*
X152384333Y-114279523D01*
X152384333Y-114350952D01*
X152360523Y-114398571D01*
X152336714Y-114422380D01*
X152289095Y-114446190D01*
X152170047Y-114446190D01*
X152122428Y-114422380D01*
X152098619Y-114398571D01*
X152074809Y-114350952D01*
X152074809Y-114208095D01*
X152098619Y-114160476D01*
X152122428Y-114136666D01*
X152527190Y-115017619D02*
X152551000Y-115041428D01*
X152574809Y-115089047D01*
X152574809Y-115208095D01*
X152551000Y-115255714D01*
X152527190Y-115279523D01*
X152479571Y-115303333D01*
X152431952Y-115303333D01*
X152360523Y-115279523D01*
X152074809Y-114993809D01*
X152074809Y-115303333D01*
X152527190Y-115493809D02*
X152551000Y-115517619D01*
X152574809Y-115565238D01*
X152574809Y-115684285D01*
X152551000Y-115731904D01*
X152527190Y-115755714D01*
X152479571Y-115779523D01*
X152431952Y-115779523D01*
X152360523Y-115755714D01*
X152074809Y-115470000D01*
X152074809Y-115779523D01*
X152574809Y-116089047D02*
X152574809Y-116136666D01*
X152551000Y-116184285D01*
X152527190Y-116208095D01*
X152479571Y-116231904D01*
X152384333Y-116255714D01*
X152265285Y-116255714D01*
X152170047Y-116231904D01*
X152122428Y-116208095D01*
X152098619Y-116184285D01*
X152074809Y-116136666D01*
X152074809Y-116089047D01*
X152098619Y-116041428D01*
X152122428Y-116017619D01*
X152170047Y-115993809D01*
X152265285Y-115970000D01*
X152384333Y-115970000D01*
X152479571Y-115993809D01*
X152527190Y-116017619D01*
X152551000Y-116041428D01*
X152574809Y-116089047D01*
X152574809Y-116946190D02*
X152574809Y-117041428D01*
X152551000Y-117089047D01*
X152503380Y-117136666D01*
X152408142Y-117160476D01*
X152241476Y-117160476D01*
X152146238Y-117136666D01*
X152098619Y-117089047D01*
X152074809Y-117041428D01*
X152074809Y-116946190D01*
X152098619Y-116898571D01*
X152146238Y-116850952D01*
X152241476Y-116827142D01*
X152408142Y-116827142D01*
X152503380Y-116850952D01*
X152551000Y-116898571D01*
X152574809Y-116946190D01*
X152074809Y-117374761D02*
X152574809Y-117374761D01*
X152074809Y-117589047D02*
X152336714Y-117589047D01*
X152384333Y-117565238D01*
X152408142Y-117517619D01*
X152408142Y-117446190D01*
X152384333Y-117398571D01*
X152360523Y-117374761D01*
X152074809Y-117827142D02*
X152408142Y-117827142D01*
X152360523Y-117827142D02*
X152384333Y-117850952D01*
X152408142Y-117898571D01*
X152408142Y-117970000D01*
X152384333Y-118017619D01*
X152336714Y-118041428D01*
X152074809Y-118041428D01*
X152336714Y-118041428D02*
X152384333Y-118065238D01*
X152408142Y-118112857D01*
X152408142Y-118184285D01*
X152384333Y-118231904D01*
X152336714Y-118255714D01*
X152074809Y-118255714D01*
%TO.C,R4 220 Ohm*%
X151362809Y-92908000D02*
X151600904Y-92741333D01*
X151362809Y-92622285D02*
X151862809Y-92622285D01*
X151862809Y-92812761D01*
X151839000Y-92860380D01*
X151815190Y-92884190D01*
X151767571Y-92908000D01*
X151696142Y-92908000D01*
X151648523Y-92884190D01*
X151624714Y-92860380D01*
X151600904Y-92812761D01*
X151600904Y-92622285D01*
X151696142Y-93336571D02*
X151362809Y-93336571D01*
X151886619Y-93217523D02*
X151529476Y-93098476D01*
X151529476Y-93408000D01*
X151815190Y-93955619D02*
X151839000Y-93979428D01*
X151862809Y-94027047D01*
X151862809Y-94146095D01*
X151839000Y-94193714D01*
X151815190Y-94217523D01*
X151767571Y-94241333D01*
X151719952Y-94241333D01*
X151648523Y-94217523D01*
X151362809Y-93931809D01*
X151362809Y-94241333D01*
X151815190Y-94431809D02*
X151839000Y-94455619D01*
X151862809Y-94503238D01*
X151862809Y-94622285D01*
X151839000Y-94669904D01*
X151815190Y-94693714D01*
X151767571Y-94717523D01*
X151719952Y-94717523D01*
X151648523Y-94693714D01*
X151362809Y-94408000D01*
X151362809Y-94717523D01*
X151862809Y-95027047D02*
X151862809Y-95074666D01*
X151839000Y-95122285D01*
X151815190Y-95146095D01*
X151767571Y-95169904D01*
X151672333Y-95193714D01*
X151553285Y-95193714D01*
X151458047Y-95169904D01*
X151410428Y-95146095D01*
X151386619Y-95122285D01*
X151362809Y-95074666D01*
X151362809Y-95027047D01*
X151386619Y-94979428D01*
X151410428Y-94955619D01*
X151458047Y-94931809D01*
X151553285Y-94908000D01*
X151672333Y-94908000D01*
X151767571Y-94931809D01*
X151815190Y-94955619D01*
X151839000Y-94979428D01*
X151862809Y-95027047D01*
X151862809Y-95884190D02*
X151862809Y-95979428D01*
X151839000Y-96027047D01*
X151791380Y-96074666D01*
X151696142Y-96098476D01*
X151529476Y-96098476D01*
X151434238Y-96074666D01*
X151386619Y-96027047D01*
X151362809Y-95979428D01*
X151362809Y-95884190D01*
X151386619Y-95836571D01*
X151434238Y-95788952D01*
X151529476Y-95765142D01*
X151696142Y-95765142D01*
X151791380Y-95788952D01*
X151839000Y-95836571D01*
X151862809Y-95884190D01*
X151362809Y-96312761D02*
X151862809Y-96312761D01*
X151362809Y-96527047D02*
X151624714Y-96527047D01*
X151672333Y-96503238D01*
X151696142Y-96455619D01*
X151696142Y-96384190D01*
X151672333Y-96336571D01*
X151648523Y-96312761D01*
X151362809Y-96765142D02*
X151696142Y-96765142D01*
X151648523Y-96765142D02*
X151672333Y-96788952D01*
X151696142Y-96836571D01*
X151696142Y-96908000D01*
X151672333Y-96955619D01*
X151624714Y-96979428D01*
X151362809Y-96979428D01*
X151624714Y-96979428D02*
X151672333Y-97003238D01*
X151696142Y-97050857D01*
X151696142Y-97122285D01*
X151672333Y-97169904D01*
X151624714Y-97193714D01*
X151362809Y-97193714D01*
D10*
%TO.C,U1*%
X145992095Y-100984380D02*
X145992095Y-101793904D01*
X146039714Y-101889142D01*
X146087333Y-101936761D01*
X146182571Y-101984380D01*
X146373047Y-101984380D01*
X146468285Y-101936761D01*
X146515904Y-101889142D01*
X146563523Y-101793904D01*
X146563523Y-100984380D01*
X147563523Y-101984380D02*
X146992095Y-101984380D01*
X147277809Y-101984380D02*
X147277809Y-100984380D01*
X147182571Y-101127238D01*
X147087333Y-101222476D01*
X146992095Y-101270095D01*
D11*
%TO.C,C1 100 nF*%
X139329428Y-113904952D02*
X139305619Y-113881142D01*
X139281809Y-113809714D01*
X139281809Y-113762095D01*
X139305619Y-113690666D01*
X139353238Y-113643047D01*
X139400857Y-113619238D01*
X139496095Y-113595428D01*
X139567523Y-113595428D01*
X139662761Y-113619238D01*
X139710380Y-113643047D01*
X139758000Y-113690666D01*
X139781809Y-113762095D01*
X139781809Y-113809714D01*
X139758000Y-113881142D01*
X139734190Y-113904952D01*
X139281809Y-114381142D02*
X139281809Y-114095428D01*
X139281809Y-114238285D02*
X139781809Y-114238285D01*
X139710380Y-114190666D01*
X139662761Y-114143047D01*
X139638952Y-114095428D01*
X139281809Y-115238285D02*
X139281809Y-114952571D01*
X139281809Y-115095428D02*
X139781809Y-115095428D01*
X139710380Y-115047809D01*
X139662761Y-115000190D01*
X139638952Y-114952571D01*
X139781809Y-115547809D02*
X139781809Y-115595428D01*
X139758000Y-115643047D01*
X139734190Y-115666857D01*
X139686571Y-115690666D01*
X139591333Y-115714476D01*
X139472285Y-115714476D01*
X139377047Y-115690666D01*
X139329428Y-115666857D01*
X139305619Y-115643047D01*
X139281809Y-115595428D01*
X139281809Y-115547809D01*
X139305619Y-115500190D01*
X139329428Y-115476380D01*
X139377047Y-115452571D01*
X139472285Y-115428761D01*
X139591333Y-115428761D01*
X139686571Y-115452571D01*
X139734190Y-115476380D01*
X139758000Y-115500190D01*
X139781809Y-115547809D01*
X139781809Y-116024000D02*
X139781809Y-116071619D01*
X139758000Y-116119238D01*
X139734190Y-116143047D01*
X139686571Y-116166857D01*
X139591333Y-116190666D01*
X139472285Y-116190666D01*
X139377047Y-116166857D01*
X139329428Y-116143047D01*
X139305619Y-116119238D01*
X139281809Y-116071619D01*
X139281809Y-116024000D01*
X139305619Y-115976380D01*
X139329428Y-115952571D01*
X139377047Y-115928761D01*
X139472285Y-115904952D01*
X139591333Y-115904952D01*
X139686571Y-115928761D01*
X139734190Y-115952571D01*
X139758000Y-115976380D01*
X139781809Y-116024000D01*
X139615142Y-116785904D02*
X139281809Y-116785904D01*
X139567523Y-116785904D02*
X139591333Y-116809714D01*
X139615142Y-116857333D01*
X139615142Y-116928761D01*
X139591333Y-116976380D01*
X139543714Y-117000190D01*
X139281809Y-117000190D01*
X139543714Y-117404952D02*
X139543714Y-117238285D01*
X139281809Y-117238285D02*
X139781809Y-117238285D01*
X139781809Y-117476380D01*
D10*
%TO.C,D4*%
X127534904Y-105117380D02*
X127534904Y-104117380D01*
X127773000Y-104117380D01*
X127915857Y-104165000D01*
X128011095Y-104260238D01*
X128058714Y-104355476D01*
X128106333Y-104545952D01*
X128106333Y-104688809D01*
X128058714Y-104879285D01*
X128011095Y-104974523D01*
X127915857Y-105069761D01*
X127773000Y-105117380D01*
X127534904Y-105117380D01*
X128963476Y-104450714D02*
X128963476Y-105117380D01*
X128725380Y-104069761D02*
X128487285Y-104784047D01*
X129106333Y-104784047D01*
%TO.C,D5*%
X127534904Y-108315380D02*
X127534904Y-107315380D01*
X127773000Y-107315380D01*
X127915857Y-107363000D01*
X128011095Y-107458238D01*
X128058714Y-107553476D01*
X128106333Y-107743952D01*
X128106333Y-107886809D01*
X128058714Y-108077285D01*
X128011095Y-108172523D01*
X127915857Y-108267761D01*
X127773000Y-108315380D01*
X127534904Y-108315380D01*
X129011095Y-107315380D02*
X128534904Y-107315380D01*
X128487285Y-107791571D01*
X128534904Y-107743952D01*
X128630142Y-107696333D01*
X128868238Y-107696333D01*
X128963476Y-107743952D01*
X129011095Y-107791571D01*
X129058714Y-107886809D01*
X129058714Y-108124904D01*
X129011095Y-108220142D01*
X128963476Y-108267761D01*
X128868238Y-108315380D01*
X128630142Y-108315380D01*
X128534904Y-108267761D01*
X128487285Y-108220142D01*
%TO.C,D3*%
X127531904Y-101985380D02*
X127531904Y-100985380D01*
X127770000Y-100985380D01*
X127912857Y-101033000D01*
X128008095Y-101128238D01*
X128055714Y-101223476D01*
X128103333Y-101413952D01*
X128103333Y-101556809D01*
X128055714Y-101747285D01*
X128008095Y-101842523D01*
X127912857Y-101937761D01*
X127770000Y-101985380D01*
X127531904Y-101985380D01*
X128436666Y-100985380D02*
X129055714Y-100985380D01*
X128722380Y-101366333D01*
X128865238Y-101366333D01*
X128960476Y-101413952D01*
X129008095Y-101461571D01*
X129055714Y-101556809D01*
X129055714Y-101794904D01*
X129008095Y-101890142D01*
X128960476Y-101937761D01*
X128865238Y-101985380D01*
X128579523Y-101985380D01*
X128484285Y-101937761D01*
X128436666Y-101890142D01*
%TO.C,D1*%
X127558904Y-95683380D02*
X127558904Y-94683380D01*
X127797000Y-94683380D01*
X127939857Y-94731000D01*
X128035095Y-94826238D01*
X128082714Y-94921476D01*
X128130333Y-95111952D01*
X128130333Y-95254809D01*
X128082714Y-95445285D01*
X128035095Y-95540523D01*
X127939857Y-95635761D01*
X127797000Y-95683380D01*
X127558904Y-95683380D01*
X129082714Y-95683380D02*
X128511285Y-95683380D01*
X128797000Y-95683380D02*
X128797000Y-94683380D01*
X128701761Y-94826238D01*
X128606523Y-94921476D01*
X128511285Y-94969095D01*
%TO.C,D2*%
X127536904Y-98817380D02*
X127536904Y-97817380D01*
X127775000Y-97817380D01*
X127917857Y-97865000D01*
X128013095Y-97960238D01*
X128060714Y-98055476D01*
X128108333Y-98245952D01*
X128108333Y-98388809D01*
X128060714Y-98579285D01*
X128013095Y-98674523D01*
X127917857Y-98769761D01*
X127775000Y-98817380D01*
X127536904Y-98817380D01*
X128489285Y-97912619D02*
X128536904Y-97865000D01*
X128632142Y-97817380D01*
X128870238Y-97817380D01*
X128965476Y-97865000D01*
X129013095Y-97912619D01*
X129060714Y-98007857D01*
X129060714Y-98103095D01*
X129013095Y-98245952D01*
X128441666Y-98817380D01*
X129060714Y-98817380D01*
D11*
%TO.C,R1 220 Ohm*%
X142464809Y-113970000D02*
X142702904Y-113803333D01*
X142464809Y-113684285D02*
X142964809Y-113684285D01*
X142964809Y-113874761D01*
X142941000Y-113922380D01*
X142917190Y-113946190D01*
X142869571Y-113970000D01*
X142798142Y-113970000D01*
X142750523Y-113946190D01*
X142726714Y-113922380D01*
X142702904Y-113874761D01*
X142702904Y-113684285D01*
X142464809Y-114446190D02*
X142464809Y-114160476D01*
X142464809Y-114303333D02*
X142964809Y-114303333D01*
X142893380Y-114255714D01*
X142845761Y-114208095D01*
X142821952Y-114160476D01*
X142917190Y-115017619D02*
X142941000Y-115041428D01*
X142964809Y-115089047D01*
X142964809Y-115208095D01*
X142941000Y-115255714D01*
X142917190Y-115279523D01*
X142869571Y-115303333D01*
X142821952Y-115303333D01*
X142750523Y-115279523D01*
X142464809Y-114993809D01*
X142464809Y-115303333D01*
X142917190Y-115493809D02*
X142941000Y-115517619D01*
X142964809Y-115565238D01*
X142964809Y-115684285D01*
X142941000Y-115731904D01*
X142917190Y-115755714D01*
X142869571Y-115779523D01*
X142821952Y-115779523D01*
X142750523Y-115755714D01*
X142464809Y-115470000D01*
X142464809Y-115779523D01*
X142964809Y-116089047D02*
X142964809Y-116136666D01*
X142941000Y-116184285D01*
X142917190Y-116208095D01*
X142869571Y-116231904D01*
X142774333Y-116255714D01*
X142655285Y-116255714D01*
X142560047Y-116231904D01*
X142512428Y-116208095D01*
X142488619Y-116184285D01*
X142464809Y-116136666D01*
X142464809Y-116089047D01*
X142488619Y-116041428D01*
X142512428Y-116017619D01*
X142560047Y-115993809D01*
X142655285Y-115970000D01*
X142774333Y-115970000D01*
X142869571Y-115993809D01*
X142917190Y-116017619D01*
X142941000Y-116041428D01*
X142964809Y-116089047D01*
X142964809Y-116946190D02*
X142964809Y-117041428D01*
X142941000Y-117089047D01*
X142893380Y-117136666D01*
X142798142Y-117160476D01*
X142631476Y-117160476D01*
X142536238Y-117136666D01*
X142488619Y-117089047D01*
X142464809Y-117041428D01*
X142464809Y-116946190D01*
X142488619Y-116898571D01*
X142536238Y-116850952D01*
X142631476Y-116827142D01*
X142798142Y-116827142D01*
X142893380Y-116850952D01*
X142941000Y-116898571D01*
X142964809Y-116946190D01*
X142464809Y-117374761D02*
X142964809Y-117374761D01*
X142464809Y-117589047D02*
X142726714Y-117589047D01*
X142774333Y-117565238D01*
X142798142Y-117517619D01*
X142798142Y-117446190D01*
X142774333Y-117398571D01*
X142750523Y-117374761D01*
X142464809Y-117827142D02*
X142798142Y-117827142D01*
X142750523Y-117827142D02*
X142774333Y-117850952D01*
X142798142Y-117898571D01*
X142798142Y-117970000D01*
X142774333Y-118017619D01*
X142726714Y-118041428D01*
X142464809Y-118041428D01*
X142726714Y-118041428D02*
X142774333Y-118065238D01*
X142798142Y-118112857D01*
X142798142Y-118184285D01*
X142774333Y-118231904D01*
X142726714Y-118255714D01*
X142464809Y-118255714D01*
%TO.C,R2 10k Ohm*%
X148891809Y-113946714D02*
X149129904Y-113780047D01*
X148891809Y-113661000D02*
X149391809Y-113661000D01*
X149391809Y-113851476D01*
X149368000Y-113899095D01*
X149344190Y-113922904D01*
X149296571Y-113946714D01*
X149225142Y-113946714D01*
X149177523Y-113922904D01*
X149153714Y-113899095D01*
X149129904Y-113851476D01*
X149129904Y-113661000D01*
X149344190Y-114137190D02*
X149368000Y-114161000D01*
X149391809Y-114208619D01*
X149391809Y-114327666D01*
X149368000Y-114375285D01*
X149344190Y-114399095D01*
X149296571Y-114422904D01*
X149248952Y-114422904D01*
X149177523Y-114399095D01*
X148891809Y-114113380D01*
X148891809Y-114422904D01*
X148891809Y-115280047D02*
X148891809Y-114994333D01*
X148891809Y-115137190D02*
X149391809Y-115137190D01*
X149320380Y-115089571D01*
X149272761Y-115041952D01*
X149248952Y-114994333D01*
X149391809Y-115589571D02*
X149391809Y-115637190D01*
X149368000Y-115684809D01*
X149344190Y-115708619D01*
X149296571Y-115732428D01*
X149201333Y-115756238D01*
X149082285Y-115756238D01*
X148987047Y-115732428D01*
X148939428Y-115708619D01*
X148915619Y-115684809D01*
X148891809Y-115637190D01*
X148891809Y-115589571D01*
X148915619Y-115541952D01*
X148939428Y-115518142D01*
X148987047Y-115494333D01*
X149082285Y-115470523D01*
X149201333Y-115470523D01*
X149296571Y-115494333D01*
X149344190Y-115518142D01*
X149368000Y-115541952D01*
X149391809Y-115589571D01*
X148891809Y-115970523D02*
X149391809Y-115970523D01*
X149082285Y-116018142D02*
X148891809Y-116161000D01*
X149225142Y-116161000D02*
X149034666Y-115970523D01*
X149391809Y-116851476D02*
X149391809Y-116946714D01*
X149368000Y-116994333D01*
X149320380Y-117041952D01*
X149225142Y-117065761D01*
X149058476Y-117065761D01*
X148963238Y-117041952D01*
X148915619Y-116994333D01*
X148891809Y-116946714D01*
X148891809Y-116851476D01*
X148915619Y-116803857D01*
X148963238Y-116756238D01*
X149058476Y-116732428D01*
X149225142Y-116732428D01*
X149320380Y-116756238D01*
X149368000Y-116803857D01*
X149391809Y-116851476D01*
X148891809Y-117280047D02*
X149391809Y-117280047D01*
X148891809Y-117494333D02*
X149153714Y-117494333D01*
X149201333Y-117470523D01*
X149225142Y-117422904D01*
X149225142Y-117351476D01*
X149201333Y-117303857D01*
X149177523Y-117280047D01*
X148891809Y-117732428D02*
X149225142Y-117732428D01*
X149177523Y-117732428D02*
X149201333Y-117756238D01*
X149225142Y-117803857D01*
X149225142Y-117875285D01*
X149201333Y-117922904D01*
X149153714Y-117946714D01*
X148891809Y-117946714D01*
X149153714Y-117946714D02*
X149201333Y-117970523D01*
X149225142Y-118018142D01*
X149225142Y-118089571D01*
X149201333Y-118137190D01*
X149153714Y-118161000D01*
X148891809Y-118161000D01*
D12*
%TO.C,*%
X137370950Y-107359000D02*
X136372730Y-107359000D01*
X138521570Y-107359000D02*
X139423270Y-107359000D01*
X138521570Y-108159100D02*
X138521570Y-106558900D01*
X138521570Y-107359000D02*
X137370950Y-108159100D01*
X137370950Y-106609700D02*
X137370950Y-108159100D01*
X138521570Y-107359000D02*
X137370950Y-106609700D01*
X137345950Y-104625000D02*
X136347730Y-104625000D01*
X138496570Y-104625000D02*
X139398270Y-104625000D01*
X138496570Y-105425100D02*
X138496570Y-103824900D01*
X138496570Y-104625000D02*
X137345950Y-105425100D01*
X137345950Y-103875700D02*
X137345950Y-105425100D01*
X138496570Y-104625000D02*
X137345950Y-103875700D01*
X137405950Y-101530000D02*
X136407730Y-101530000D01*
X138556570Y-101530000D02*
X139458270Y-101530000D01*
X138556570Y-102330100D02*
X138556570Y-100729900D01*
X138556570Y-101530000D02*
X137405950Y-102330100D01*
X137405950Y-100780700D02*
X137405950Y-102330100D01*
X138556570Y-101530000D02*
X137405950Y-100780700D01*
X138409050Y-95271000D02*
X139407270Y-95271000D01*
X137258430Y-95271000D02*
X136356730Y-95271000D01*
X137258430Y-94470900D02*
X137258430Y-96071100D01*
X137258430Y-95271000D02*
X138409050Y-94470900D01*
X138409050Y-96020300D02*
X138409050Y-94470900D01*
X137258430Y-95271000D02*
X138409050Y-96020300D01*
X137390530Y-98409000D02*
X136392310Y-98409000D01*
X138541150Y-98409000D02*
X139442850Y-98409000D01*
X138541150Y-99209100D02*
X138541150Y-97608900D01*
X138541150Y-98409000D02*
X137390530Y-99209100D01*
X137390530Y-97659700D02*
X137390530Y-99209100D01*
X138541150Y-98409000D02*
X137390530Y-97659700D01*
D13*
%TO.C,J2*%
X166637000Y-81719667D02*
X166637000Y-85913000D01*
X166877000Y-81959667D02*
X166877000Y-117566333D01*
X170617000Y-81959667D02*
X166877000Y-81959667D01*
X166877000Y-117566333D02*
X170617000Y-117566333D01*
X168877000Y-81719667D02*
X166637000Y-81719667D01*
%TO.C,J1*%
X125059000Y-82069667D02*
X121319000Y-82069667D01*
X123059000Y-81829667D02*
X125299000Y-81829667D01*
X121319000Y-117676333D02*
X125059000Y-117676333D01*
X125059000Y-117676333D02*
X125059000Y-82069667D01*
X125299000Y-81829667D02*
X125299000Y-86023000D01*
%TD*%
M02*
